<mxfile host="app.diagrams.net" agent="Mozilla/5.0 (Windows NT 10.0; Win64; x64) AppleWebKit/537.36 (KHTML, like Gecko) Chrome/136.0.0.0 Safari/537.36 Edg/136.0.0.0" version="27.0.6">
  <diagram name="Seite-1" id="WXR5VmGyEO8oZK_U3z3x">
    <mxGraphModel dx="1447" dy="691" grid="1" gridSize="10" guides="1" tooltips="1" connect="1" arrows="1" fold="1" page="1" pageScale="1" pageWidth="827" pageHeight="1169" math="0" shadow="0">
      <root>
        <mxCell id="0" />
        <mxCell id="1" parent="0" />
        <mxCell id="r7jupV3RTdDVKy68YR1f-18" value="Employee" style="shape=table;startSize=30;container=1;collapsible=0;childLayout=tableLayout;strokeColor=default;fontSize=16;" parent="1" vertex="1">
          <mxGeometry x="70" y="110" width="410" height="177" as="geometry" />
        </mxCell>
        <mxCell id="r7jupV3RTdDVKy68YR1f-19" value="" style="shape=tableRow;horizontal=0;startSize=0;swimlaneHead=0;swimlaneBody=0;strokeColor=inherit;top=0;left=0;bottom=0;right=0;collapsible=0;dropTarget=0;fillColor=none;points=[[0,0.5],[1,0.5]];portConstraint=eastwest;fontSize=16;" parent="r7jupV3RTdDVKy68YR1f-18" vertex="1">
          <mxGeometry y="30" width="410" height="37" as="geometry" />
        </mxCell>
        <mxCell id="r7jupV3RTdDVKy68YR1f-20" value="int" style="shape=partialRectangle;html=1;whiteSpace=wrap;connectable=0;strokeColor=inherit;overflow=hidden;fillColor=none;top=0;left=0;bottom=0;right=0;pointerEvents=1;fontSize=16;" parent="r7jupV3RTdDVKy68YR1f-19" vertex="1">
          <mxGeometry width="80" height="37" as="geometry">
            <mxRectangle width="80" height="37" as="alternateBounds" />
          </mxGeometry>
        </mxCell>
        <mxCell id="r7jupV3RTdDVKy68YR1f-21" value="Id" style="shape=partialRectangle;html=1;whiteSpace=wrap;connectable=0;strokeColor=inherit;overflow=hidden;fillColor=none;top=0;left=0;bottom=0;right=0;pointerEvents=1;fontSize=16;" parent="r7jupV3RTdDVKy68YR1f-19" vertex="1">
          <mxGeometry x="80" width="100" height="37" as="geometry">
            <mxRectangle width="100" height="37" as="alternateBounds" />
          </mxGeometry>
        </mxCell>
        <mxCell id="r7jupV3RTdDVKy68YR1f-22" value="PK" style="shape=partialRectangle;html=1;whiteSpace=wrap;connectable=0;strokeColor=inherit;overflow=hidden;fillColor=none;top=0;left=0;bottom=0;right=0;pointerEvents=1;fontSize=16;" parent="r7jupV3RTdDVKy68YR1f-19" vertex="1">
          <mxGeometry x="180" width="230" height="37" as="geometry">
            <mxRectangle width="230" height="37" as="alternateBounds" />
          </mxGeometry>
        </mxCell>
        <mxCell id="r7jupV3RTdDVKy68YR1f-23" value="" style="shape=tableRow;horizontal=0;startSize=0;swimlaneHead=0;swimlaneBody=0;strokeColor=inherit;top=0;left=0;bottom=0;right=0;collapsible=0;dropTarget=0;fillColor=none;points=[[0,0.5],[1,0.5]];portConstraint=eastwest;fontSize=16;" parent="r7jupV3RTdDVKy68YR1f-18" vertex="1">
          <mxGeometry y="67" width="410" height="36" as="geometry" />
        </mxCell>
        <mxCell id="r7jupV3RTdDVKy68YR1f-24" value="string" style="shape=partialRectangle;html=1;whiteSpace=wrap;connectable=0;strokeColor=inherit;overflow=hidden;fillColor=none;top=0;left=0;bottom=0;right=0;pointerEvents=1;fontSize=16;" parent="r7jupV3RTdDVKy68YR1f-23" vertex="1">
          <mxGeometry width="80" height="36" as="geometry">
            <mxRectangle width="80" height="36" as="alternateBounds" />
          </mxGeometry>
        </mxCell>
        <mxCell id="r7jupV3RTdDVKy68YR1f-25" value="Firstname" style="shape=partialRectangle;html=1;whiteSpace=wrap;connectable=0;strokeColor=inherit;overflow=hidden;fillColor=none;top=0;left=0;bottom=0;right=0;pointerEvents=1;fontSize=16;" parent="r7jupV3RTdDVKy68YR1f-23" vertex="1">
          <mxGeometry x="80" width="100" height="36" as="geometry">
            <mxRectangle width="100" height="36" as="alternateBounds" />
          </mxGeometry>
        </mxCell>
        <mxCell id="r7jupV3RTdDVKy68YR1f-26" value="NOT NULL, NVARCHAR(50)" style="shape=partialRectangle;html=1;whiteSpace=wrap;connectable=0;strokeColor=inherit;overflow=hidden;fillColor=none;top=0;left=0;bottom=0;right=0;pointerEvents=1;fontSize=16;" parent="r7jupV3RTdDVKy68YR1f-23" vertex="1">
          <mxGeometry x="180" width="230" height="36" as="geometry">
            <mxRectangle width="230" height="36" as="alternateBounds" />
          </mxGeometry>
        </mxCell>
        <mxCell id="r7jupV3RTdDVKy68YR1f-27" value="" style="shape=tableRow;horizontal=0;startSize=0;swimlaneHead=0;swimlaneBody=0;strokeColor=inherit;top=0;left=0;bottom=0;right=0;collapsible=0;dropTarget=0;fillColor=none;points=[[0,0.5],[1,0.5]];portConstraint=eastwest;fontSize=16;" parent="r7jupV3RTdDVKy68YR1f-18" vertex="1">
          <mxGeometry y="103" width="410" height="37" as="geometry" />
        </mxCell>
        <mxCell id="r7jupV3RTdDVKy68YR1f-28" value="string" style="shape=partialRectangle;html=1;whiteSpace=wrap;connectable=0;strokeColor=inherit;overflow=hidden;fillColor=none;top=0;left=0;bottom=0;right=0;pointerEvents=1;fontSize=16;" parent="r7jupV3RTdDVKy68YR1f-27" vertex="1">
          <mxGeometry width="80" height="37" as="geometry">
            <mxRectangle width="80" height="37" as="alternateBounds" />
          </mxGeometry>
        </mxCell>
        <mxCell id="r7jupV3RTdDVKy68YR1f-29" value="Lastname" style="shape=partialRectangle;html=1;whiteSpace=wrap;connectable=0;strokeColor=inherit;overflow=hidden;fillColor=none;top=0;left=0;bottom=0;right=0;pointerEvents=1;fontSize=16;" parent="r7jupV3RTdDVKy68YR1f-27" vertex="1">
          <mxGeometry x="80" width="100" height="37" as="geometry">
            <mxRectangle width="100" height="37" as="alternateBounds" />
          </mxGeometry>
        </mxCell>
        <mxCell id="r7jupV3RTdDVKy68YR1f-30" value="NOT NULL, NVARCHAR(50)" style="shape=partialRectangle;html=1;whiteSpace=wrap;connectable=0;strokeColor=inherit;overflow=hidden;fillColor=none;top=0;left=0;bottom=0;right=0;pointerEvents=1;fontSize=16;" parent="r7jupV3RTdDVKy68YR1f-27" vertex="1">
          <mxGeometry x="180" width="230" height="37" as="geometry">
            <mxRectangle width="230" height="37" as="alternateBounds" />
          </mxGeometry>
        </mxCell>
        <mxCell id="r7jupV3RTdDVKy68YR1f-31" style="shape=tableRow;horizontal=0;startSize=0;swimlaneHead=0;swimlaneBody=0;strokeColor=inherit;top=0;left=0;bottom=0;right=0;collapsible=0;dropTarget=0;fillColor=none;points=[[0,0.5],[1,0.5]];portConstraint=eastwest;fontSize=16;" parent="r7jupV3RTdDVKy68YR1f-18" vertex="1">
          <mxGeometry y="140" width="410" height="37" as="geometry" />
        </mxCell>
        <mxCell id="r7jupV3RTdDVKy68YR1f-32" value="string" style="shape=partialRectangle;html=1;whiteSpace=wrap;connectable=0;strokeColor=inherit;overflow=hidden;fillColor=none;top=0;left=0;bottom=0;right=0;pointerEvents=1;fontSize=16;" parent="r7jupV3RTdDVKy68YR1f-31" vertex="1">
          <mxGeometry width="80" height="37" as="geometry">
            <mxRectangle width="80" height="37" as="alternateBounds" />
          </mxGeometry>
        </mxCell>
        <mxCell id="r7jupV3RTdDVKy68YR1f-33" value="Password" style="shape=partialRectangle;html=1;whiteSpace=wrap;connectable=0;strokeColor=inherit;overflow=hidden;fillColor=none;top=0;left=0;bottom=0;right=0;pointerEvents=1;fontSize=16;" parent="r7jupV3RTdDVKy68YR1f-31" vertex="1">
          <mxGeometry x="80" width="100" height="37" as="geometry">
            <mxRectangle width="100" height="37" as="alternateBounds" />
          </mxGeometry>
        </mxCell>
        <mxCell id="r7jupV3RTdDVKy68YR1f-34" value="NOT NULL, NVARCHAR(50)" style="shape=partialRectangle;html=1;whiteSpace=wrap;connectable=0;strokeColor=inherit;overflow=hidden;fillColor=none;top=0;left=0;bottom=0;right=0;pointerEvents=1;fontSize=16;" parent="r7jupV3RTdDVKy68YR1f-31" vertex="1">
          <mxGeometry x="180" width="230" height="37" as="geometry">
            <mxRectangle width="230" height="37" as="alternateBounds" />
          </mxGeometry>
        </mxCell>
        <mxCell id="r7jupV3RTdDVKy68YR1f-35" value="Journey" style="shape=table;startSize=30;container=1;collapsible=0;childLayout=tableLayout;strokeColor=default;fontSize=16;" parent="1" vertex="1">
          <mxGeometry x="700" y="270" width="730" height="399" as="geometry" />
        </mxCell>
        <mxCell id="r7jupV3RTdDVKy68YR1f-36" value="" style="shape=tableRow;horizontal=0;startSize=0;swimlaneHead=0;swimlaneBody=0;strokeColor=inherit;top=0;left=0;bottom=0;right=0;collapsible=0;dropTarget=0;fillColor=none;points=[[0,0.5],[1,0.5]];portConstraint=eastwest;fontSize=16;" parent="r7jupV3RTdDVKy68YR1f-35" vertex="1">
          <mxGeometry y="30" width="730" height="37" as="geometry" />
        </mxCell>
        <mxCell id="r7jupV3RTdDVKy68YR1f-37" value="int" style="shape=partialRectangle;html=1;whiteSpace=wrap;connectable=0;strokeColor=inherit;overflow=hidden;fillColor=none;top=0;left=0;bottom=0;right=0;pointerEvents=1;fontSize=16;" parent="r7jupV3RTdDVKy68YR1f-36" vertex="1">
          <mxGeometry width="119" height="37" as="geometry">
            <mxRectangle width="119" height="37" as="alternateBounds" />
          </mxGeometry>
        </mxCell>
        <mxCell id="r7jupV3RTdDVKy68YR1f-38" value="Id" style="shape=partialRectangle;html=1;whiteSpace=wrap;connectable=0;strokeColor=inherit;overflow=hidden;fillColor=none;top=0;left=0;bottom=0;right=0;pointerEvents=1;fontSize=16;" parent="r7jupV3RTdDVKy68YR1f-36" vertex="1">
          <mxGeometry x="119" width="211" height="37" as="geometry">
            <mxRectangle width="211" height="37" as="alternateBounds" />
          </mxGeometry>
        </mxCell>
        <mxCell id="r7jupV3RTdDVKy68YR1f-39" value="PK" style="shape=partialRectangle;html=1;whiteSpace=wrap;connectable=0;strokeColor=inherit;overflow=hidden;fillColor=none;top=0;left=0;bottom=0;right=0;pointerEvents=1;fontSize=16;" parent="r7jupV3RTdDVKy68YR1f-36" vertex="1">
          <mxGeometry x="330" width="400" height="37" as="geometry">
            <mxRectangle width="400" height="37" as="alternateBounds" />
          </mxGeometry>
        </mxCell>
        <mxCell id="r7jupV3RTdDVKy68YR1f-40" value="" style="shape=tableRow;horizontal=0;startSize=0;swimlaneHead=0;swimlaneBody=0;strokeColor=inherit;top=0;left=0;bottom=0;right=0;collapsible=0;dropTarget=0;fillColor=none;points=[[0,0.5],[1,0.5]];portConstraint=eastwest;fontSize=16;" parent="r7jupV3RTdDVKy68YR1f-35" vertex="1">
          <mxGeometry y="67" width="730" height="36" as="geometry" />
        </mxCell>
        <mxCell id="r7jupV3RTdDVKy68YR1f-41" value="date" style="shape=partialRectangle;html=1;whiteSpace=wrap;connectable=0;strokeColor=inherit;overflow=hidden;fillColor=none;top=0;left=0;bottom=0;right=0;pointerEvents=1;fontSize=16;" parent="r7jupV3RTdDVKy68YR1f-40" vertex="1">
          <mxGeometry width="119" height="36" as="geometry">
            <mxRectangle width="119" height="36" as="alternateBounds" />
          </mxGeometry>
        </mxCell>
        <mxCell id="r7jupV3RTdDVKy68YR1f-42" value="JourneyDate" style="shape=partialRectangle;html=1;whiteSpace=wrap;connectable=0;strokeColor=inherit;overflow=hidden;fillColor=none;top=0;left=0;bottom=0;right=0;pointerEvents=1;fontSize=16;" parent="r7jupV3RTdDVKy68YR1f-40" vertex="1">
          <mxGeometry x="119" width="211" height="36" as="geometry">
            <mxRectangle width="211" height="36" as="alternateBounds" />
          </mxGeometry>
        </mxCell>
        <mxCell id="r7jupV3RTdDVKy68YR1f-43" value="NOT NULL, DATE_FORMAT(&#39;%M.%d.%y&#39;)" style="shape=partialRectangle;html=1;whiteSpace=wrap;connectable=0;strokeColor=inherit;overflow=hidden;fillColor=none;top=0;left=0;bottom=0;right=0;pointerEvents=1;fontSize=16;" parent="r7jupV3RTdDVKy68YR1f-40" vertex="1">
          <mxGeometry x="330" width="400" height="36" as="geometry">
            <mxRectangle width="400" height="36" as="alternateBounds" />
          </mxGeometry>
        </mxCell>
        <mxCell id="r7jupV3RTdDVKy68YR1f-44" value="" style="shape=tableRow;horizontal=0;startSize=0;swimlaneHead=0;swimlaneBody=0;strokeColor=inherit;top=0;left=0;bottom=0;right=0;collapsible=0;dropTarget=0;fillColor=none;points=[[0,0.5],[1,0.5]];portConstraint=eastwest;fontSize=16;" parent="r7jupV3RTdDVKy68YR1f-35" vertex="1">
          <mxGeometry y="103" width="730" height="37" as="geometry" />
        </mxCell>
        <mxCell id="r7jupV3RTdDVKy68YR1f-45" value="date" style="shape=partialRectangle;html=1;whiteSpace=wrap;connectable=0;strokeColor=inherit;overflow=hidden;fillColor=none;top=0;left=0;bottom=0;right=0;pointerEvents=1;fontSize=16;" parent="r7jupV3RTdDVKy68YR1f-44" vertex="1">
          <mxGeometry width="119" height="37" as="geometry">
            <mxRectangle width="119" height="37" as="alternateBounds" />
          </mxGeometry>
        </mxCell>
        <mxCell id="r7jupV3RTdDVKy68YR1f-46" value="TimeStampStart" style="shape=partialRectangle;html=1;whiteSpace=wrap;connectable=0;strokeColor=inherit;overflow=hidden;fillColor=none;top=0;left=0;bottom=0;right=0;pointerEvents=1;fontSize=16;" parent="r7jupV3RTdDVKy68YR1f-44" vertex="1">
          <mxGeometry x="119" width="211" height="37" as="geometry">
            <mxRectangle width="211" height="37" as="alternateBounds" />
          </mxGeometry>
        </mxCell>
        <mxCell id="r7jupV3RTdDVKy68YR1f-47" value="NOT NULL, DATE_FORMAT(&#39;%H:%m:%s&#39;)" style="shape=partialRectangle;html=1;whiteSpace=wrap;connectable=0;strokeColor=inherit;overflow=hidden;fillColor=none;top=0;left=0;bottom=0;right=0;pointerEvents=1;fontSize=16;" parent="r7jupV3RTdDVKy68YR1f-44" vertex="1">
          <mxGeometry x="330" width="400" height="37" as="geometry">
            <mxRectangle width="400" height="37" as="alternateBounds" />
          </mxGeometry>
        </mxCell>
        <mxCell id="r7jupV3RTdDVKy68YR1f-48" style="shape=tableRow;horizontal=0;startSize=0;swimlaneHead=0;swimlaneBody=0;strokeColor=inherit;top=0;left=0;bottom=0;right=0;collapsible=0;dropTarget=0;fillColor=none;points=[[0,0.5],[1,0.5]];portConstraint=eastwest;fontSize=16;" parent="r7jupV3RTdDVKy68YR1f-35" vertex="1">
          <mxGeometry y="140" width="730" height="37" as="geometry" />
        </mxCell>
        <mxCell id="r7jupV3RTdDVKy68YR1f-49" value="date" style="shape=partialRectangle;html=1;whiteSpace=wrap;connectable=0;strokeColor=inherit;overflow=hidden;fillColor=none;top=0;left=0;bottom=0;right=0;pointerEvents=1;fontSize=16;" parent="r7jupV3RTdDVKy68YR1f-48" vertex="1">
          <mxGeometry width="119" height="37" as="geometry">
            <mxRectangle width="119" height="37" as="alternateBounds" />
          </mxGeometry>
        </mxCell>
        <mxCell id="r7jupV3RTdDVKy68YR1f-50" value="TimeStampEnd" style="shape=partialRectangle;html=1;whiteSpace=wrap;connectable=0;strokeColor=inherit;overflow=hidden;fillColor=none;top=0;left=0;bottom=0;right=0;pointerEvents=1;fontSize=16;" parent="r7jupV3RTdDVKy68YR1f-48" vertex="1">
          <mxGeometry x="119" width="211" height="37" as="geometry">
            <mxRectangle width="211" height="37" as="alternateBounds" />
          </mxGeometry>
        </mxCell>
        <mxCell id="r7jupV3RTdDVKy68YR1f-51" value="NOT NULL, DATE_FORMAT(&#39;%H:%m:%s&#39;)" style="shape=partialRectangle;html=1;whiteSpace=wrap;connectable=0;strokeColor=inherit;overflow=hidden;fillColor=none;top=0;left=0;bottom=0;right=0;pointerEvents=1;fontSize=16;" parent="r7jupV3RTdDVKy68YR1f-48" vertex="1">
          <mxGeometry x="330" width="400" height="37" as="geometry">
            <mxRectangle width="400" height="37" as="alternateBounds" />
          </mxGeometry>
        </mxCell>
        <mxCell id="r7jupV3RTdDVKy68YR1f-52" style="shape=tableRow;horizontal=0;startSize=0;swimlaneHead=0;swimlaneBody=0;strokeColor=inherit;top=0;left=0;bottom=0;right=0;collapsible=0;dropTarget=0;fillColor=none;points=[[0,0.5],[1,0.5]];portConstraint=eastwest;fontSize=16;" parent="r7jupV3RTdDVKy68YR1f-35" vertex="1">
          <mxGeometry y="177" width="730" height="37" as="geometry" />
        </mxCell>
        <mxCell id="r7jupV3RTdDVKy68YR1f-53" value="int" style="shape=partialRectangle;html=1;whiteSpace=wrap;connectable=0;strokeColor=inherit;overflow=hidden;fillColor=none;top=0;left=0;bottom=0;right=0;pointerEvents=1;fontSize=16;" parent="r7jupV3RTdDVKy68YR1f-52" vertex="1">
          <mxGeometry width="119" height="37" as="geometry">
            <mxRectangle width="119" height="37" as="alternateBounds" />
          </mxGeometry>
        </mxCell>
        <mxCell id="r7jupV3RTdDVKy68YR1f-54" value="TravelRoute" style="shape=partialRectangle;html=1;whiteSpace=wrap;connectable=0;strokeColor=inherit;overflow=hidden;fillColor=none;top=0;left=0;bottom=0;right=0;pointerEvents=1;fontSize=16;" parent="r7jupV3RTdDVKy68YR1f-52" vertex="1">
          <mxGeometry x="119" width="211" height="37" as="geometry">
            <mxRectangle width="211" height="37" as="alternateBounds" />
          </mxGeometry>
        </mxCell>
        <mxCell id="r7jupV3RTdDVKy68YR1f-55" value="NOT NULL, Between 0 AND int.MaxValue" style="shape=partialRectangle;html=1;whiteSpace=wrap;connectable=0;strokeColor=inherit;overflow=hidden;fillColor=none;top=0;left=0;bottom=0;right=0;pointerEvents=1;fontSize=16;" parent="r7jupV3RTdDVKy68YR1f-52" vertex="1">
          <mxGeometry x="330" width="400" height="37" as="geometry">
            <mxRectangle width="400" height="37" as="alternateBounds" />
          </mxGeometry>
        </mxCell>
        <mxCell id="r7jupV3RTdDVKy68YR1f-56" style="shape=tableRow;horizontal=0;startSize=0;swimlaneHead=0;swimlaneBody=0;strokeColor=inherit;top=0;left=0;bottom=0;right=0;collapsible=0;dropTarget=0;fillColor=none;points=[[0,0.5],[1,0.5]];portConstraint=eastwest;fontSize=16;" parent="r7jupV3RTdDVKy68YR1f-35" vertex="1">
          <mxGeometry y="214" width="730" height="37" as="geometry" />
        </mxCell>
        <mxCell id="r7jupV3RTdDVKy68YR1f-57" value="string" style="shape=partialRectangle;html=1;whiteSpace=wrap;connectable=0;strokeColor=inherit;overflow=hidden;fillColor=none;top=0;left=0;bottom=0;right=0;pointerEvents=1;fontSize=16;" parent="r7jupV3RTdDVKy68YR1f-56" vertex="1">
          <mxGeometry width="119" height="37" as="geometry">
            <mxRectangle width="119" height="37" as="alternateBounds" />
          </mxGeometry>
        </mxCell>
        <mxCell id="r7jupV3RTdDVKy68YR1f-58" value="PurposeOfTheJourney" style="shape=partialRectangle;html=1;whiteSpace=wrap;connectable=0;strokeColor=inherit;overflow=hidden;fillColor=none;top=0;left=0;bottom=0;right=0;pointerEvents=1;fontSize=16;" parent="r7jupV3RTdDVKy68YR1f-56" vertex="1">
          <mxGeometry x="119" width="211" height="37" as="geometry">
            <mxRectangle width="211" height="37" as="alternateBounds" />
          </mxGeometry>
        </mxCell>
        <mxCell id="r7jupV3RTdDVKy68YR1f-59" value="NOT NULL, NVARCHAR(500)" style="shape=partialRectangle;html=1;whiteSpace=wrap;connectable=0;strokeColor=inherit;overflow=hidden;fillColor=none;top=0;left=0;bottom=0;right=0;pointerEvents=1;fontSize=16;" parent="r7jupV3RTdDVKy68YR1f-56" vertex="1">
          <mxGeometry x="330" width="400" height="37" as="geometry">
            <mxRectangle width="400" height="37" as="alternateBounds" />
          </mxGeometry>
        </mxCell>
        <mxCell id="r7jupV3RTdDVKy68YR1f-60" style="shape=tableRow;horizontal=0;startSize=0;swimlaneHead=0;swimlaneBody=0;strokeColor=inherit;top=0;left=0;bottom=0;right=0;collapsible=0;dropTarget=0;fillColor=none;points=[[0,0.5],[1,0.5]];portConstraint=eastwest;fontSize=16;" parent="r7jupV3RTdDVKy68YR1f-35" vertex="1">
          <mxGeometry y="251" width="730" height="37" as="geometry" />
        </mxCell>
        <mxCell id="r7jupV3RTdDVKy68YR1f-61" value="int" style="shape=partialRectangle;html=1;whiteSpace=wrap;connectable=0;strokeColor=inherit;overflow=hidden;fillColor=none;top=0;left=0;bottom=0;right=0;pointerEvents=1;fontSize=16;" parent="r7jupV3RTdDVKy68YR1f-60" vertex="1">
          <mxGeometry width="119" height="37" as="geometry">
            <mxRectangle width="119" height="37" as="alternateBounds" />
          </mxGeometry>
        </mxCell>
        <mxCell id="r7jupV3RTdDVKy68YR1f-62" value="KmDistanceDeparture" style="shape=partialRectangle;html=1;whiteSpace=wrap;connectable=0;strokeColor=inherit;overflow=hidden;fillColor=none;top=0;left=0;bottom=0;right=0;pointerEvents=1;fontSize=16;" parent="r7jupV3RTdDVKy68YR1f-60" vertex="1">
          <mxGeometry x="119" width="211" height="37" as="geometry">
            <mxRectangle width="211" height="37" as="alternateBounds" />
          </mxGeometry>
        </mxCell>
        <mxCell id="r7jupV3RTdDVKy68YR1f-63" value="NOT NULL, Between 0 AND int.MaxValue" style="shape=partialRectangle;html=1;whiteSpace=wrap;connectable=0;strokeColor=inherit;overflow=hidden;fillColor=none;top=0;left=0;bottom=0;right=0;pointerEvents=1;fontSize=16;" parent="r7jupV3RTdDVKy68YR1f-60" vertex="1">
          <mxGeometry x="330" width="400" height="37" as="geometry">
            <mxRectangle width="400" height="37" as="alternateBounds" />
          </mxGeometry>
        </mxCell>
        <mxCell id="r7jupV3RTdDVKy68YR1f-64" style="shape=tableRow;horizontal=0;startSize=0;swimlaneHead=0;swimlaneBody=0;strokeColor=inherit;top=0;left=0;bottom=0;right=0;collapsible=0;dropTarget=0;fillColor=none;points=[[0,0.5],[1,0.5]];portConstraint=eastwest;fontSize=16;" parent="r7jupV3RTdDVKy68YR1f-35" vertex="1">
          <mxGeometry y="288" width="730" height="37" as="geometry" />
        </mxCell>
        <mxCell id="r7jupV3RTdDVKy68YR1f-65" value="int" style="shape=partialRectangle;html=1;whiteSpace=wrap;connectable=0;strokeColor=inherit;overflow=hidden;fillColor=none;top=0;left=0;bottom=0;right=0;pointerEvents=1;fontSize=16;" parent="r7jupV3RTdDVKy68YR1f-64" vertex="1">
          <mxGeometry width="119" height="37" as="geometry">
            <mxRectangle width="119" height="37" as="alternateBounds" />
          </mxGeometry>
        </mxCell>
        <mxCell id="r7jupV3RTdDVKy68YR1f-66" value="KmDistanceArrival" style="shape=partialRectangle;html=1;whiteSpace=wrap;connectable=0;strokeColor=inherit;overflow=hidden;fillColor=none;top=0;left=0;bottom=0;right=0;pointerEvents=1;fontSize=16;" parent="r7jupV3RTdDVKy68YR1f-64" vertex="1">
          <mxGeometry x="119" width="211" height="37" as="geometry">
            <mxRectangle width="211" height="37" as="alternateBounds" />
          </mxGeometry>
        </mxCell>
        <mxCell id="r7jupV3RTdDVKy68YR1f-67" value="NOT NULL, Between 0 AND int.MaxValue" style="shape=partialRectangle;html=1;whiteSpace=wrap;connectable=0;strokeColor=inherit;overflow=hidden;fillColor=none;top=0;left=0;bottom=0;right=0;pointerEvents=1;fontSize=16;" parent="r7jupV3RTdDVKy68YR1f-64" vertex="1">
          <mxGeometry x="330" width="400" height="37" as="geometry">
            <mxRectangle width="400" height="37" as="alternateBounds" />
          </mxGeometry>
        </mxCell>
        <mxCell id="r7jupV3RTdDVKy68YR1f-68" style="shape=tableRow;horizontal=0;startSize=0;swimlaneHead=0;swimlaneBody=0;strokeColor=inherit;top=0;left=0;bottom=0;right=0;collapsible=0;dropTarget=0;fillColor=none;points=[[0,0.5],[1,0.5]];portConstraint=eastwest;fontSize=16;" parent="r7jupV3RTdDVKy68YR1f-35" vertex="1">
          <mxGeometry y="325" width="730" height="37" as="geometry" />
        </mxCell>
        <mxCell id="r7jupV3RTdDVKy68YR1f-69" value="int" style="shape=partialRectangle;html=1;whiteSpace=wrap;connectable=0;strokeColor=inherit;overflow=hidden;fillColor=none;top=0;left=0;bottom=0;right=0;pointerEvents=1;fontSize=16;" parent="r7jupV3RTdDVKy68YR1f-68" vertex="1">
          <mxGeometry width="119" height="37" as="geometry">
            <mxRectangle width="119" height="37" as="alternateBounds" />
          </mxGeometry>
        </mxCell>
        <mxCell id="r7jupV3RTdDVKy68YR1f-70" value="EmployeeId" style="shape=partialRectangle;html=1;whiteSpace=wrap;connectable=0;strokeColor=inherit;overflow=hidden;fillColor=none;top=0;left=0;bottom=0;right=0;pointerEvents=1;fontSize=16;" parent="r7jupV3RTdDVKy68YR1f-68" vertex="1">
          <mxGeometry x="119" width="211" height="37" as="geometry">
            <mxRectangle width="211" height="37" as="alternateBounds" />
          </mxGeometry>
        </mxCell>
        <mxCell id="r7jupV3RTdDVKy68YR1f-71" value="NOT NULL" style="shape=partialRectangle;html=1;whiteSpace=wrap;connectable=0;strokeColor=inherit;overflow=hidden;fillColor=none;top=0;left=0;bottom=0;right=0;pointerEvents=1;fontSize=16;" parent="r7jupV3RTdDVKy68YR1f-68" vertex="1">
          <mxGeometry x="330" width="400" height="37" as="geometry">
            <mxRectangle width="400" height="37" as="alternateBounds" />
          </mxGeometry>
        </mxCell>
        <mxCell id="r7jupV3RTdDVKy68YR1f-72" style="shape=tableRow;horizontal=0;startSize=0;swimlaneHead=0;swimlaneBody=0;strokeColor=inherit;top=0;left=0;bottom=0;right=0;collapsible=0;dropTarget=0;fillColor=none;points=[[0,0.5],[1,0.5]];portConstraint=eastwest;fontSize=16;" parent="r7jupV3RTdDVKy68YR1f-35" vertex="1">
          <mxGeometry y="362" width="730" height="37" as="geometry" />
        </mxCell>
        <mxCell id="r7jupV3RTdDVKy68YR1f-73" value="int" style="shape=partialRectangle;html=1;whiteSpace=wrap;connectable=0;strokeColor=inherit;overflow=hidden;fillColor=none;top=0;left=0;bottom=0;right=0;pointerEvents=1;fontSize=16;" parent="r7jupV3RTdDVKy68YR1f-72" vertex="1">
          <mxGeometry width="119" height="37" as="geometry">
            <mxRectangle width="119" height="37" as="alternateBounds" />
          </mxGeometry>
        </mxCell>
        <mxCell id="r7jupV3RTdDVKy68YR1f-74" value="CompanyCarId" style="shape=partialRectangle;html=1;whiteSpace=wrap;connectable=0;strokeColor=inherit;overflow=hidden;fillColor=none;top=0;left=0;bottom=0;right=0;pointerEvents=1;fontSize=16;" parent="r7jupV3RTdDVKy68YR1f-72" vertex="1">
          <mxGeometry x="119" width="211" height="37" as="geometry">
            <mxRectangle width="211" height="37" as="alternateBounds" />
          </mxGeometry>
        </mxCell>
        <mxCell id="r7jupV3RTdDVKy68YR1f-75" value="NOT NULL" style="shape=partialRectangle;html=1;whiteSpace=wrap;connectable=0;strokeColor=inherit;overflow=hidden;fillColor=none;top=0;left=0;bottom=0;right=0;pointerEvents=1;fontSize=16;" parent="r7jupV3RTdDVKy68YR1f-72" vertex="1">
          <mxGeometry x="330" width="400" height="37" as="geometry">
            <mxRectangle width="400" height="37" as="alternateBounds" />
          </mxGeometry>
        </mxCell>
        <mxCell id="r7jupV3RTdDVKy68YR1f-76" style="edgeStyle=orthogonalEdgeStyle;rounded=0;orthogonalLoop=1;jettySize=auto;html=1;entryX=0;entryY=0.5;entryDx=0;entryDy=0;" parent="1" source="r7jupV3RTdDVKy68YR1f-19" target="r7jupV3RTdDVKy68YR1f-68" edge="1">
          <mxGeometry relative="1" as="geometry" />
        </mxCell>
        <mxCell id="r7jupV3RTdDVKy68YR1f-77" value="CompanyCar" style="shape=table;startSize=30;container=1;collapsible=0;childLayout=tableLayout;strokeColor=default;fontSize=16;" parent="1" vertex="1">
          <mxGeometry x="90" y="870" width="530" height="177" as="geometry" />
        </mxCell>
        <mxCell id="r7jupV3RTdDVKy68YR1f-78" value="" style="shape=tableRow;horizontal=0;startSize=0;swimlaneHead=0;swimlaneBody=0;strokeColor=inherit;top=0;left=0;bottom=0;right=0;collapsible=0;dropTarget=0;fillColor=none;points=[[0,0.5],[1,0.5]];portConstraint=eastwest;fontSize=16;" parent="r7jupV3RTdDVKy68YR1f-77" vertex="1">
          <mxGeometry y="30" width="530" height="37" as="geometry" />
        </mxCell>
        <mxCell id="r7jupV3RTdDVKy68YR1f-79" value="int" style="shape=partialRectangle;html=1;whiteSpace=wrap;connectable=0;strokeColor=inherit;overflow=hidden;fillColor=none;top=0;left=0;bottom=0;right=0;pointerEvents=1;fontSize=16;" parent="r7jupV3RTdDVKy68YR1f-78" vertex="1">
          <mxGeometry width="103" height="37" as="geometry">
            <mxRectangle width="103" height="37" as="alternateBounds" />
          </mxGeometry>
        </mxCell>
        <mxCell id="r7jupV3RTdDVKy68YR1f-80" value="Id" style="shape=partialRectangle;html=1;whiteSpace=wrap;connectable=0;strokeColor=inherit;overflow=hidden;fillColor=none;top=0;left=0;bottom=0;right=0;pointerEvents=1;fontSize=16;" parent="r7jupV3RTdDVKy68YR1f-78" vertex="1">
          <mxGeometry x="103" width="156" height="37" as="geometry">
            <mxRectangle width="156" height="37" as="alternateBounds" />
          </mxGeometry>
        </mxCell>
        <mxCell id="r7jupV3RTdDVKy68YR1f-81" value="PK" style="shape=partialRectangle;html=1;whiteSpace=wrap;connectable=0;strokeColor=inherit;overflow=hidden;fillColor=none;top=0;left=0;bottom=0;right=0;pointerEvents=1;fontSize=16;" parent="r7jupV3RTdDVKy68YR1f-78" vertex="1">
          <mxGeometry x="259" width="271" height="37" as="geometry">
            <mxRectangle width="271" height="37" as="alternateBounds" />
          </mxGeometry>
        </mxCell>
        <mxCell id="r7jupV3RTdDVKy68YR1f-82" value="" style="shape=tableRow;horizontal=0;startSize=0;swimlaneHead=0;swimlaneBody=0;strokeColor=inherit;top=0;left=0;bottom=0;right=0;collapsible=0;dropTarget=0;fillColor=none;points=[[0,0.5],[1,0.5]];portConstraint=eastwest;fontSize=16;" parent="r7jupV3RTdDVKy68YR1f-77" vertex="1">
          <mxGeometry y="67" width="530" height="36" as="geometry" />
        </mxCell>
        <mxCell id="r7jupV3RTdDVKy68YR1f-83" value="string" style="shape=partialRectangle;html=1;whiteSpace=wrap;connectable=0;strokeColor=inherit;overflow=hidden;fillColor=none;top=0;left=0;bottom=0;right=0;pointerEvents=1;fontSize=16;" parent="r7jupV3RTdDVKy68YR1f-82" vertex="1">
          <mxGeometry width="103" height="36" as="geometry">
            <mxRectangle width="103" height="36" as="alternateBounds" />
          </mxGeometry>
        </mxCell>
        <mxCell id="r7jupV3RTdDVKy68YR1f-84" value="Brand" style="shape=partialRectangle;html=1;whiteSpace=wrap;connectable=0;strokeColor=inherit;overflow=hidden;fillColor=none;top=0;left=0;bottom=0;right=0;pointerEvents=1;fontSize=16;" parent="r7jupV3RTdDVKy68YR1f-82" vertex="1">
          <mxGeometry x="103" width="156" height="36" as="geometry">
            <mxRectangle width="156" height="36" as="alternateBounds" />
          </mxGeometry>
        </mxCell>
        <mxCell id="r7jupV3RTdDVKy68YR1f-85" value="NOT NULL, NVARCHAR(50)" style="shape=partialRectangle;html=1;whiteSpace=wrap;connectable=0;strokeColor=inherit;overflow=hidden;fillColor=none;top=0;left=0;bottom=0;right=0;pointerEvents=1;fontSize=16;" parent="r7jupV3RTdDVKy68YR1f-82" vertex="1">
          <mxGeometry x="259" width="271" height="36" as="geometry">
            <mxRectangle width="271" height="36" as="alternateBounds" />
          </mxGeometry>
        </mxCell>
        <mxCell id="r7jupV3RTdDVKy68YR1f-86" value="" style="shape=tableRow;horizontal=0;startSize=0;swimlaneHead=0;swimlaneBody=0;strokeColor=inherit;top=0;left=0;bottom=0;right=0;collapsible=0;dropTarget=0;fillColor=none;points=[[0,0.5],[1,0.5]];portConstraint=eastwest;fontSize=16;" parent="r7jupV3RTdDVKy68YR1f-77" vertex="1">
          <mxGeometry y="103" width="530" height="37" as="geometry" />
        </mxCell>
        <mxCell id="r7jupV3RTdDVKy68YR1f-87" value="int" style="shape=partialRectangle;html=1;whiteSpace=wrap;connectable=0;strokeColor=inherit;overflow=hidden;fillColor=none;top=0;left=0;bottom=0;right=0;pointerEvents=1;fontSize=16;" parent="r7jupV3RTdDVKy68YR1f-86" vertex="1">
          <mxGeometry width="103" height="37" as="geometry">
            <mxRectangle width="103" height="37" as="alternateBounds" />
          </mxGeometry>
        </mxCell>
        <mxCell id="r7jupV3RTdDVKy68YR1f-88" value="CarType" style="shape=partialRectangle;html=1;whiteSpace=wrap;connectable=0;strokeColor=inherit;overflow=hidden;fillColor=none;top=0;left=0;bottom=0;right=0;pointerEvents=1;fontSize=16;" parent="r7jupV3RTdDVKy68YR1f-86" vertex="1">
          <mxGeometry x="103" width="156" height="37" as="geometry">
            <mxRectangle width="156" height="37" as="alternateBounds" />
          </mxGeometry>
        </mxCell>
        <mxCell id="r7jupV3RTdDVKy68YR1f-89" value="NOT NULL, Between 0 AND 7" style="shape=partialRectangle;html=1;whiteSpace=wrap;connectable=0;strokeColor=inherit;overflow=hidden;fillColor=none;top=0;left=0;bottom=0;right=0;pointerEvents=1;fontSize=16;" parent="r7jupV3RTdDVKy68YR1f-86" vertex="1">
          <mxGeometry x="259" width="271" height="37" as="geometry">
            <mxRectangle width="271" height="37" as="alternateBounds" />
          </mxGeometry>
        </mxCell>
        <mxCell id="r7jupV3RTdDVKy68YR1f-90" style="shape=tableRow;horizontal=0;startSize=0;swimlaneHead=0;swimlaneBody=0;strokeColor=inherit;top=0;left=0;bottom=0;right=0;collapsible=0;dropTarget=0;fillColor=none;points=[[0,0.5],[1,0.5]];portConstraint=eastwest;fontSize=16;" parent="r7jupV3RTdDVKy68YR1f-77" vertex="1">
          <mxGeometry y="140" width="530" height="37" as="geometry" />
        </mxCell>
        <mxCell id="r7jupV3RTdDVKy68YR1f-91" value="string" style="shape=partialRectangle;html=1;whiteSpace=wrap;connectable=0;strokeColor=inherit;overflow=hidden;fillColor=none;top=0;left=0;bottom=0;right=0;pointerEvents=1;fontSize=16;" parent="r7jupV3RTdDVKy68YR1f-90" vertex="1">
          <mxGeometry width="103" height="37" as="geometry">
            <mxRectangle width="103" height="37" as="alternateBounds" />
          </mxGeometry>
        </mxCell>
        <mxCell id="r7jupV3RTdDVKy68YR1f-92" value="LicencePlate" style="shape=partialRectangle;html=1;whiteSpace=wrap;connectable=0;strokeColor=inherit;overflow=hidden;fillColor=none;top=0;left=0;bottom=0;right=0;pointerEvents=1;fontSize=16;" parent="r7jupV3RTdDVKy68YR1f-90" vertex="1">
          <mxGeometry x="103" width="156" height="37" as="geometry">
            <mxRectangle width="156" height="37" as="alternateBounds" />
          </mxGeometry>
        </mxCell>
        <mxCell id="r7jupV3RTdDVKy68YR1f-93" value="NOT NULL, NVARCHAR(10)" style="shape=partialRectangle;html=1;whiteSpace=wrap;connectable=0;strokeColor=inherit;overflow=hidden;fillColor=none;top=0;left=0;bottom=0;right=0;pointerEvents=1;fontSize=16;" parent="r7jupV3RTdDVKy68YR1f-90" vertex="1">
          <mxGeometry x="259" width="271" height="37" as="geometry">
            <mxRectangle width="271" height="37" as="alternateBounds" />
          </mxGeometry>
        </mxCell>
        <mxCell id="r7jupV3RTdDVKy68YR1f-94" style="edgeStyle=orthogonalEdgeStyle;rounded=0;orthogonalLoop=1;jettySize=auto;html=1;entryX=0;entryY=0.5;entryDx=0;entryDy=0;" parent="1" source="r7jupV3RTdDVKy68YR1f-78" target="r7jupV3RTdDVKy68YR1f-72" edge="1">
          <mxGeometry relative="1" as="geometry" />
        </mxCell>
      </root>
    </mxGraphModel>
  </diagram>
</mxfile>
